<?xml version="1.0" encoding="utf-8"?>
<!-- Generator: Adobe Illustrator 18.1.1, SVG Export Plug-In . SVG Version: 6.00 Build 0)  -->
<!DOCTYPE svg PUBLIC "-//W3C//DTD SVG 1.1//EN" "http://www.w3.org/Graphics/SVG/1.1/DTD/svg11.dtd">
<svg version="1.1" id="Layer_1" xmlns="http://www.w3.org/2000/svg" xmlns:xlink="http://www.w3.org/1999/xlink" x="0px" y="0px"
	 viewBox="0 0 360 360" enable-background="new 0 0 360 360" xml:space="preserve">
<path fill="#EFEEED" d="M180,10.6v30.8c-21.2,0-41.3,4.8-59.3,13.3l-13.2-27.9C129.5,16.4,154,10.6,180,10.6z"/>
<path fill="#3DBB9A" d="M120.7,54.7C73.8,77,41.4,124.7,41.4,180H10.6c0-67.6,39.6-126,96.9-153.1L120.7,54.7z"/>
<path fill="#F16067" d="M319.1,282.1c-7.7,12.7-24.4,29.4-37.1,37.1C148.7,400.2,10.6,306.2,10.6,180h30.8
	c0,76.5,62,138.6,138.5,138.6c76.5,0,138.6-62,138.6-138.6S256.5,41.4,180,41.4V10.6C306.2,10.6,400.2,148.7,319.1,282.1z"/>
<line fill="none" stroke="#FFFFFF" stroke-miterlimit="10" x1="10.6" y1="180" x2="7.7" y2="180"/>
</svg>
