<?xml version="1.0" encoding="utf-8"?>
<!-- Generator: Adobe Illustrator 18.1.1, SVG Export Plug-In . SVG Version: 6.00 Build 0)  -->
<!DOCTYPE svg PUBLIC "-//W3C//DTD SVG 1.1//EN" "http://www.w3.org/Graphics/SVG/1.1/DTD/svg11.dtd">
<svg version="1.1" id="Layer_1" xmlns="http://www.w3.org/2000/svg" xmlns:xlink="http://www.w3.org/1999/xlink" x="0px" y="0px"
	 viewBox="0 0 1024 576" enable-background="new 0 0 1024 576" xml:space="preserve">
<rect x="-9" y="-9" fill="#092928" width="1042" height="594"/>
<g>
	<path fill="#3DBB9A" d="M497.7,160.2c-3.5,3.9-5.1,8.7,0,12.6c5.8,4.5,13.3,6.9,20.6,6.4c2.7-0.2,5.4-0.9,7.5-2.6
		c3.4-2.8,3.6-7.7-0.1-10.3c-1.9-1.3-4.1-1.8-6.3-2.5c-3.6-1.1-5.2-2.3-6.6-5.6c-0.4-0.9-1.2-1.6-2.1-2c-3.1-1.5-7-1.1-9.7,0.9
		C499.8,158.1,498.7,159.1,497.7,160.2z"/>
	<path fill="#3DBB9A" d="M436.4,110.2c-0.7-1.5-1.4-3-1.8-4.6c-0.2-0.9-0.3-1.9,0.2-2.8c0.6-1.2,2.1-1.7,3.4-2.1
		c2.1-0.6,4.6-1.2,6.4,0.1c0.9,0.6,1.4,1.6,1.9,2.6c1.4,2.7,2.6,5.6,4.6,7.8c1.2,1.3,4.6,2.3,4.6,4.7c0.9,2.1,1,4.4,1.1,6.7
		c0.1,1.9,0.1,4-1.3,5.3c-1.2,1.1-3.1,1.1-4.7,0.9c-3-0.3-6.3-0.8-8.4-3c-3-3-2.8-7.7-4.1-11.7C437.7,112.8,437,111.5,436.4,110.2z"
		/>
	<path fill="#3DBB9A" d="M615.9,173.5c-1.8-1.7-2.8-3.7-1.5-5.2c3.4-4.1,6.9-3.7,11.4-2c2.6,1,6.6,1.6,6.7,4.9
		C632.6,180.5,619.7,177.2,615.9,173.5z"/>
	<path fill="#3DBB9A" d="M710.5,418c-2.4,1.9-6.1,4.1-7.8,6.6c-5.6,8.2,9.3,16.6,15.3,18.7c8.9,3.1,11.3-11.5,18.8-7.6
		c7.4,3.8,12.9-9.8,19.7-11.8c2.8-0.9,5.8-1.4,8.1-3.2c4.8-3.8-0.5-7.8,1.9-11.8c1-1.6,3.2-2,5-2.5c5.4-1.3,10.2-5.2,12.6-10.3
		c0.7-1.5,1.2-3.1,0.8-4.7c-0.6-2.3-3-3.7-5.3-4.5c-8.6-3.1-18.4-1.8-25.5,4c-3.3,2.7-5.5,2.7-9.4,4.3c-3.3,1.4-5,5-6.4,8.3
		c-1.9,4.3-4.4,7.6-9.3,8.2c-7.4,0.9-12.4,1.2-18.4,6.2C710.7,417.9,710.6,418,710.5,418z"/>
	<path fill="#3DBB9A" d="M671.7,536c-1.2-1-2.2-2.3-2.8-3.8c-2.2-5.9,11.9-4.9,16.1-7.3c2-1.1,8.6-1.3,9.8,3.4
		c0.5,2,1.2,4.2,3.2,5.2c2.3,1.1,4.5-1.5,6.3,1.2c0.7,1,0.9,2.3,1.1,3.5c0.2,1.4,0.4,2.9,0,4.3c-2.7,8.2-18.3,0.8-23-1.2
		C679,539.7,674.6,538.5,671.7,536z"/>
	<path fill="#3DBB9A" d="M506,512.3c0.2-0.4,0.4-0.9,0.5-1.3c1.9-6,4-11.1,10.9-11.7c5.5-0.5,11.2,1.3,15.2,5.2
		c3,3,9.2,6.5,8.4,11.5c-0.9,5.9-6,2.9-8.3,6.2c-0.5,0.8-0.4,1.8-0.4,2.7c0.1,1.6,0,3.3-0.7,4.8c-1.7,3.4-5.2,2.7-8.1,1.7
		c-6.2-2.2-21.9-3.1-20.5-12.8C503.4,516.3,505,514.4,506,512.3z"/>
	<path fill="#3DBB9A" d="M596.5,403.5c0.9-1.1,4.3-3,9.1-0.4c4.8,2.6,7.8,6.5,4.8,9.1c-3,2.6-7.2,8.1-11.2,7.3
		C595.2,418.7,589.5,412.2,596.5,403.5z"/>
	<path fill="#3DBB9A" d="M546.5,327c3.8-2.2,6.3-8.3,11.5-3.8c0.9,0.8,1.4,2.3,0.7,3.2c-0.2,0.2-0.4,0.5-0.4,0.7
		c0,0.4,0.4,0.6,0.7,0.7c3.8,2.2,0.3,6.1,0.3,9.2c0,0.9,0.1,1.7-0.2,2.6c-2,5.3-14.5,4.1-16.4-0.7C540,332.7,543,329.1,546.5,327z"
		/>
	<path fill="#3DBB9A" d="M495.9,362.5c0.5-0.5,1.1-1,1.9-1.4c2.5-1.4,6.5-0.8,7.8-4c0.5-1.1,0.4-2.5,1-3.5
		c2.6-4.6,17.6-2.6,22.5-3.5c5-0.9,9.8-2.5,14.8-2.9c5.7-0.5,19.8,0.2,19.3,8c-0.4,5.2,4.6,3.6,9,3.6c6.5-0.1,21.2-0.2,12.6,11.3
		c-3,4-5.7,4.4-7.4,8.6c-0.5,1.3-5.6,5.1-5.6,6.6c-0.1,4.6-0.1,13.8-4.8,16.6c-1.4,0.8-3.6-0.1-4.8,0.9c-2,1.5-0.6,4.4-3.8,4.8
		c-6.6,0.7-11.7-3-18.4-0.7c-3.8,1.3-7.3,3.4-11.2,4.4c-3.9,1-8.5,0.8-11.4-1.9c-2.2-2.1-3.1-5.3-4.5-8.1c-3.3-6.1-7.4-2.4-11.8-5.2
		c-1.3-0.8-2.1-2.2-2.7-3.5c-3.4-6.9-6.3-15.1-5.2-22.8C493.5,366.7,494.1,364.3,495.9,362.5z"/>
	<path fill="#3DBB9A" d="M463.6,367.5c3-1.7,5.2-0.5,7.4,0.8s7.1-0.2,6.4,3.7c-0.7,3.8,0.8,7.7,0.1,9.5c-0.8,1.7-8.6,1.7-11.2,1.7
		c-2.6,0-13.9-7.8-8.2-11.7C463.6,367.5,463.6,367.5,463.6,367.5z"/>
	<path fill="#3DBB9A" d="M460.1,327c0,0,6.4-0.3,6.9,4s5.2,4.3,0,7.8c-5.2,3.5-11.2,2.1-13,0c-1.8-2.1,0-7.4,0-9.6
		S460.1,327,460.1,327z"/>
	<path fill="#3DBB9A" d="M424.3,287.4c0-0.5,0-1,0-2c0-4.7-0.1-7.1,4.9-8.7c5.6-1.8,36-12.5,35.5,0.9c-0.2,4.4,0.8,7,5.6,6.4
		c5.8-0.7,12.2-0.3,16.1,4.6c6.5,8,9.3,22.6,6.4,32.6c-0.5,1.9-1.9,3.7-3.8,4.1c-1.1,0.3-2.3,0-3.5-0.2c-12.3-2.9-23-7.5-36-6.6
		c-13.5,1-12.8-13-21.3-19c-1.3-0.9-2.8-1.7-4-2.8c-2.7-2.7-0.9-4.5-0.3-7.3C424.1,288.5,424.2,287.9,424.3,287.4z"/>
	<path fill="#3DBB9A" d="M250.2,323.7c-0.3-1-0.6-2-1.2-3c-2.2-4-8-10.3-1.8-13.6c9.4-5.1,21.7,3.7,29.6-3.6c3.5-3.2,7.4-8.3,12.7-8
		c5.2,0.3,10.2,5.8,12.6,10c2.8,4.7,6.1,7.6,7.5,13c1.3,5,1.8,10.3,1.4,15.4c-0.8,11.5-6.6,21.9-19,23.1c-4.3,0.4-9.1,1.4-13.3-0.1
		c-5.3-1.8-5.3-8.2-10-10.8c-4.4-2.5-10-1-13.6-5.1C250.9,336.6,251.7,329.3,250.2,323.7z"/>
	<path fill="#3DBB9A" d="M244.5,89.8c6.6-7.3,17.7-13.1,20.3-6.9c2.6,6.2,12.4,1.9,13.4,8.6c2.2,14.9-26.1,15.3-33.7,13.3
		c-1.2-0.3-2.5-0.7-3.4-1.6C237.8,100.1,240.2,94.6,244.5,89.8z"/>
	<path fill="#3DBB9A" d="M244.8,37.2c-4.7,3-7.5,6.9-4.9,8.8c0,0,0,0,0,0c2.6,1.9-0.3,4.7,1.6,6.6c5.3,5.3,17.7-2.3,22.6-5.1
		c5.3-3,4.6-4.8,0-11.3C260.2,30.7,250.9,33.2,244.8,37.2z"/>
	<path fill="#3DBB9A" d="M286.8,218.1c5.1,2.7,20.9-8.6,24.9-10.7c1.3-0.7,2.7-1.4,4.1-1.5c2.3-0.2,4.5,1,6.4,2.4
		c5.4,4.3,9.3,11.4,8.1,18.5c-2.2,13,10.4,20.3,15,23c7.8,4.5-7.1,27.2,3.9,34.2c2.5,1.6,5.5,1.7,8.2,2.8c8.1,3.1,11.6,12.6,13,21.2
		c0.6,3.4,1,6.9,2.8,9.9c6.3,10.6,22.8-7.6,26.9,9.9c1.6,6.8-0.2,14.6,2.5,21.1c2.8,6.8,12.5,10.8,2.9,16.5
		c-1.9,1.1-3.7,3.4-2.5,5.3c0.4,0.7,1.2,1.1,2,1.5c7.2,3.6,14.4,7.2,21.6,10.9c2.2,1.1,1.3,11.8,3.2,14.4c1.9,2.6,8.4,5.8,9.4,8.5
		c3.3,9-15.2,35.3-24.1,37.8c-14.1,4-12.7,3.2-25.5,10.5c-11.6,6.7-93.7,20.3-96.4,1.1c-0.6-4.5,0.8-10.6-2.4-13.5
		c-4.3-3.9-14.8,2.1-17.6-7c-0.9-2.8,0.6-6,2.8-8c15.8-14.3,37.2-40.6,60.3-42.3c7.1-0.5,50.4,2.7,32-17.9
		c-13.1-14.7-27.2-20.1-27.2-34.2c0-14.2-41.6-18.7-40.3-77.3c0.6-26.7-19.3,9.1-30.5-5.7C266.1,243.6,281,214.9,286.8,218.1
		C286.8,218.1,286.8,218.1,286.8,218.1z"/>
	<path fill="#3DBB9A" d="M551.2,295.5c4-3.5,8.5-3.7,13-1.4c0.2,1.4,0.2,2.7,0.2,4.1C564.4,309.9,550.9,305.7,551.2,295.5z"/>
	<path fill="#3DBB9A" d="M496.5,295.4c0.9-1,3.8-2.8,5.5-1.4c0.4,0.3,0.6,0.8,0.7,1.2c0.4,2.1-1.9,6-6,4.4c-0.9-0.4-1.1-2.3-0.9-2.9
		C495.7,296.4,496,295.9,496.5,295.4z"/>
	<path fill="#3DBB9A" d="M527.1,335.3c-1.1-0.7-3.4-3.2-2.4-5.1c0.3-0.5,0.7-0.8,1.1-0.9c2-0.8,6.3,0.7,5.5,5.1
		c-0.2,1-2.1,1.5-2.7,1.5C528.2,335.8,527.7,335.6,527.1,335.3z"/>
</g>
</svg>
