<?xml version="1.0" encoding="utf-8"?>
<!-- Generator: Adobe Illustrator 18.1.1, SVG Export Plug-In . SVG Version: 6.00 Build 0)  -->
<!DOCTYPE svg PUBLIC "-//W3C//DTD SVG 1.1//EN" "http://www.w3.org/Graphics/SVG/1.1/DTD/svg11.dtd">
<svg version="1.1" xmlns="http://www.w3.org/2000/svg" xmlns:xlink="http://www.w3.org/1999/xlink" x="0px" y="0px"
	 viewBox="0 0 1200 700" enable-background="new 0 0 1200 700" xml:space="preserve">
<g id="map">
	<rect fill="#092928" width="1199.6" height="702.2"/>
	<path fill="#3DBB9A" d="M506.3,134c2.7,4.7,2.8,10.7,8.1,11.6c12.6,2.1,20.3-10.6,11.2-18.1c-5.5-4.6-5.8-14.6-13.9-13.9
		c-1.7,0.1-7.9,3.5-8.6,5.1c-0.5,1-3.7,3.9-3.6,5C499.7,127.8,504.1,130.3,506.3,134z"/>
	<path fill="#3DBB9A" d="M567.3,183.8c0,0,8.1-6.3,17.3-5.2s4.6,1.2,9.2,5.2c4.6,4,4.6,4.6,4.6,12.1c0,10.6-15.9,9.1-22.5,5.2
		C571.7,198.6,558.8,188.8,567.3,183.8z"/>
	<path fill="#3DBB9A" d="M702,189.8c3.7-3.2,9-5.7,13.8-3.2c4.2,2.2,5.6,8.6,4.6,12.9c-0.8,3.7-4.3,2.2-6.8,1.5
		c-6.3-1.7-6.7,5.1-12.3,1.7C694.5,198.6,697.6,193.6,702,189.8z"/>
	<path fill="#3DBB9A" d="M305.3,345.2c0,0,26.9,0.8,28.1-3.6c1.2-4.4-1.2-4.4,8.1-4.4c9.4,0,7.5,1.6,12.5,8c5,6.4,5.6,6.4,9.4,13.6
		c3.7,7.1,3.7,11.5,3.7,15.3c0,3.7-2.5,9.4-6.9,12.5c-4.4,3.1-24.4,11.2-29.4,8.7s-16.2-2.7-25.6-11.2s0-6.9-9.4-15.6
		S291.9,337.4,305.3,345.2z"/>
	<path fill="#3DBB9A" d="M497,330.5c1.1-2,2.2-4.1,2.6-6.4c1-5.1-5.7-15.5,3.4-15c12.9,0.6,13.6,1.1,21,5.4
		c7.4,4.3,14.3,6.2,14.3,6.2s10.6-6,13.1,0c2.4,5.6,7.7,7.4,11.5,11.5c3.9,4.3,2.2,7.5,4,12.8c0.4,1.1,0.9,2.2,0.8,3.4
		c-0.1,3.1-8.8,17.2-11.3,19.2c-8.4,6.6-14.9-9.6-22-11.6c-5.5-1.6-10.8,2.3-16.2,2.7c-10.2,0.8-25.4-5.2-25.4-17.3
		C493,337.2,495.1,333.9,497,330.5z"/>
	<path fill="#3DBB9A" d="M337.8,280.4c0,0-22.5,10.6-23.1-5.6c-0.3-7.1,1.5-9.7,7.5-11.5c3.6-1.1,5.6-0.7,9.4-3.7
		c4.4-3.5,7.3-8.8,12-11.8c5.3-3.4,12.2-2.8,17.2-6.8c3.3-2.6,8-17.1,12.6-9.9c1.8,2.8,3.1,6.3,5.7,8.4c3.2,2.7,5.8,1.1,7.1,6.4
		c1.7,6.9,0.7,22.8,8.5,26.4c12.5,5.6,12.5,10.6,12.5,30c0,19.4,11.9,30.1,19.4,36.9c7.5,6.8,36.2,26.8,43.7,37.5
		c3.9,5.5,1.4,8.9-0.9,14.2c-2.8,6.4-2.4,11.4-1.8,18.4c0.4,4.9-2.6,13.7,3.7,15.8c8.8,3,14.2-7.5,19.3,5.1
		c1.9,4.8,1.4,10.8,4.3,15.1c2.6,4,8.2,4.3,10.8,8.1c2.6,3.9,1.2,8.6,0,12.9c-2.4,8.5-7.6,19.9-15.6,24.6c-3.5,2-5,2.7-7.5,6
		c-7.5,9.8-19.7,9.3-30.2,13.7c-10.5,4.4-20.6,10.4-30.4,16.1c-16.4,9.4-71.7-5.7-79.8-19.3c-3.4-5.6-9-20.3-4.4-26.3
		c0.9-1.2,2.2-2.1,3.4-2.9c8.1-5.5,17.7-11.1,23.4-19.7c4.4-6.7,5.8-19.7,15.7-20.5c2.7-0.2,5.4,0.3,8.2,0.3c4.6,0,7.8-2.7,11.9-3.4
		c4.4-0.7,39-5.1,34.9-13.8c-5.1-10.9-16.5-17.3-24.6-25.8c-7.4-7.8-8.1-13.1-8.9-23.2c-0.8-9.1-7.8-7-13.9-9.9
		c-3.8-1.8-5.9-5.2-8.5-8.5c-3.5-4.3-7.5-8.1-10.9-12.5c-8.4-10.9-4.9-21.6-5.8-34.2C361.7,294.1,356,265.5,337.8,280.4z"/>
	<path fill="#3DBB9A" d="M573,408.7c3.4-4.5,7.8-8.5,13-10.7c5.5-2.3,11.5-0.5,16.8-2.7c5.2-2.2,7-7.5,13.6-7.9
		c8.8-0.6,16.9,5.1,24.4,8.9c6.2,3.2,13.9,5.7,18.1,11.7c4.5,6.3,6.9,23.3,0.3,28.8c-4.1,3.5-10.5,2.3-14.5,5.7
		c-6.2,5.3-3,15.7-11.7,18.1c-11.2,3.1-24.1,1.1-35.5,0c-7.9-0.7-11.4-7.1-16-12.7c-3.9-4.7-14.3-8.3-15.4-13.9
		C564.5,424.8,567.5,415.8,573,408.7z"/>
	<path fill="#3DBB9A" d="M796.1,491.1c2.1-2.6,5-5.4,7.1-8.3c3-4.1,9.9-9.4,15.2-5.9c4.4,3,6.7-6.5,7.6-9c1.7-5,2-11.8,7-14.9
		c6.3-3.9,11.3-1.6,16.2-7.6c3.1-3.8,6.3-9.7,11.9-10.2c6.8-0.7,13.8,2.3,17.7,7.8c1.6,2.4,3.8,6.3,3.5,9.3c-0.5,5.8-4.6,4.2-7,8.5
		c-0.9,1.5-1.3,3.3-2.2,4.8c-4.8,7.6-16.5,5.8-20.8,14c-5.5,10.6-2,18.2-17.2,19.7c-9.6,1-20.4,6.3-30.2,4.3
		C790.7,500.7,791.9,496.2,796.1,491.1z"/>
	<path fill="#3DBB9A" d="M769.1,601c2.1-0.6,4.2-1,5.6-1.1c6.4-0.5,26.2,6.4,17.3,14.7c-4.4,4-17.8,3.5-22.9,1.3
		C759.7,611.9,758.4,604.1,769.1,601z"/>
</g>
<g id="genovesa">
	<path fill="#F16067" d="M712.6,134.1c-10.5,0-19,8.5-19,19c0,2.3,0.4,4.5,1.2,6.6c0,0,0,0.1,0,0.1l1.9,3.8l6.9,13.6l8.9,17.5
		l8.9-17.5l6.7-13c2.2-3.1,3.5-6.9,3.5-11C731.6,142.7,723.1,134.1,712.6,134.1z M712.6,162.3c-5.3,0-9.6-4.3-9.6-9.6
		c0-5.3,4.3-9.6,9.6-9.6c5.3,0,9.6,4.3,9.6,9.6C722.2,158.1,717.9,162.3,712.6,162.3z"/>
</g>
<g id="merchena">
	<path fill="#F16067" d="M586.9,134.1c-10.5,0-19,8.5-19,19c0,2.3,0.4,4.5,1.2,6.6c0,0,0,0.1,0,0.1l1.9,3.8l6.9,13.6l8.9,17.5
		l8.9-17.5l6.7-13c2.2-3.1,3.5-6.9,3.5-11C605.9,142.7,597.4,134.1,586.9,134.1z M586.9,162.3c-5.3,0-9.6-4.3-9.6-9.6
		c0-5.3,4.3-9.6,9.6-9.6c5.3,0,9.6,4.3,9.6,9.6C596.5,158.1,592.2,162.3,586.9,162.3z"/>
</g>
<g id="pinta">
	<path fill="#F16067" d="M518.5,69.2c-10.5,0-19,8.5-19,19c0,2.3,0.4,4.5,1.2,6.6c0,0,0,0.1,0,0.1l1.9,3.8l6.9,13.6l8.9,17.5
		l8.9-17.5l6.7-13c2.2-3.1,3.5-6.9,3.5-11C537.6,77.7,529,69.2,518.5,69.2z M518.5,97.4c-5.3,0-9.6-4.3-9.6-9.6
		c0-5.3,4.3-9.6,9.6-9.6c5.3,0,9.6,4.3,9.6,9.6C528.1,93.1,523.8,97.4,518.5,97.4z"/>
</g>
<g id="fernandia">
	<path fill="#F16067" d="M326,307c-10.5,0-19,8.5-19,19c0,2.3,0.4,4.5,1.2,6.6c0,0,0,0.1,0,0.1l1.9,3.8L317,350l8.9,17.5l8.9-17.5
		l6.7-13c2.2-3.1,3.5-6.9,3.5-11C345,315.5,336.5,307,326,307z M326,335.2c-5.3,0-9.6-4.3-9.6-9.6c0-5.3,4.3-9.6,9.6-9.6
		c5.3,0,9.6,4.3,9.6,9.6C335.6,330.9,331.3,335.2,326,335.2z"/>
</g>
<g id="santiago">
	<path fill="#F16067" d="M537.6,284c-10.5,0-19,8.5-19,19c0,2.3,0.4,4.5,1.2,6.6c0,0,0,0.1,0,0.1l1.9,3.8l6.9,13.6l8.9,17.5
		l8.9-17.5l6.7-13c2.2-3.1,3.5-6.9,3.5-11C556.6,292.6,548.1,284,537.6,284z M537.6,312.2c-5.3,0-9.6-4.3-9.6-9.6
		c0-5.3,4.3-9.6,9.6-9.6c5.3,0,9.6,4.3,9.6,9.6C547.1,308,542.9,312.2,537.6,312.2z"/>
</g>
<g id="isabela">
	<path fill="#F16067" d="M449.7,431.9c-10.5,0-19,8.5-19,19c0,2.3,0.4,4.5,1.2,6.6c0,0,0,0.1,0,0.1l1.9,3.8l6.9,13.6l8.9,17.5
		l8.9-17.5l6.7-13c2.2-3.1,3.5-6.9,3.5-11C468.7,440.4,460.2,431.9,449.7,431.9z M449.7,460.1c-5.3,0-9.6-4.3-9.6-9.6
		c0-5.3,4.3-9.6,9.6-9.6c5.3,0,9.6,4.3,9.6,9.6C459.3,455.8,455,460.1,449.7,460.1z"/>
</g>
<g id="santacruz">
	<path fill="#F16067" d="M637.4,359.8c-10.5,0-19,8.5-19,19c0,2.3,0.4,4.5,1.2,6.6c0,0,0,0.1,0,0.1l1.9,3.8l6.9,13.6l8.9,17.5
		l8.9-17.5l6.7-13c2.2-3.1,3.5-6.9,3.5-11C656.4,368.3,647.9,359.8,637.4,359.8z M637.4,388c-5.3,0-9.6-4.3-9.6-9.6
		c0-5.3,4.3-9.6,9.6-9.6c5.3,0,9.6,4.3,9.6,9.6C647,383.7,642.7,388,637.4,388z"/>
</g>
<g id="sancristobel">
	<path fill="#F16067" d="M844.7,404.9c-10.5,0-19,8.5-19,19c0,2.3,0.4,4.5,1.2,6.6c0,0,0,0.1,0,0.1l1.9,3.8l6.9,13.6l8.9,17.5
		l8.9-17.5l6.7-13c2.2-3.1,3.5-6.9,3.5-11C863.8,413.4,855.3,404.9,844.7,404.9z M844.7,433.1c-5.3,0-9.6-4.3-9.6-9.6
		c0-5.3,4.3-9.6,9.6-9.6c5.3,0,9.6,4.3,9.6,9.6C854.3,428.8,850,433.1,844.7,433.1z"/>
</g>
<g id="espanola">
	<path fill="#F16067" d="M777.9,549.6c-10.5,0-19,8.5-19,19c0,2.3,0.4,4.5,1.2,6.6c0,0,0,0.1,0,0.1l1.9,3.8l6.9,13.6l8.9,17.5
		l8.9-17.5l6.7-13c2.2-3.1,3.5-6.9,3.5-11C796.9,558.1,788.4,549.6,777.9,549.6z M777.9,577.8c-5.3,0-9.6-4.3-9.6-9.6
		c0-5.3,4.3-9.6,9.6-9.6c5.3,0,9.6,4.3,9.6,9.6C787.5,573.5,783.2,577.8,777.9,577.8z"/>
</g>
</svg>
